<?xml version="1.0" encoding="utf-8"?>
<!-- Generator: Adobe Illustrator 21.1.0, SVG Export Plug-In . SVG Version: 6.00 Build 0)  -->
<svg version="1.1" id="Слой_1" xmlns="http://www.w3.org/2000/svg" xmlns:xlink="http://www.w3.org/1999/xlink" x="0px" y="0px"
	 viewBox="0 0 103.1 175.1" style="enable-background:new 0 0 103.1 175.1;" xml:space="preserve">
<style type="text/css">
	.st0{fill:#FFFFFF;}
</style>
<title>Ресурс 2</title>
<g id="Слой_2">
	<g id="Слой_1-2">
		<path class="st0" d="M27,125.4V60.3H16.4V49.9H27v-3.6c0-10.6,2.4-20.3,8.8-26.4c5-4.6,11.6-7.1,18.4-7c4,0,8,0.7,11.7,2.2
			L64,25.7c-2.7-1.2-5.7-1.8-8.7-1.7c-11.7,0-14.7,10.3-14.7,21.8v4.1h18.3v10.4H40.6v65.1H27z"/>
		<path class="st0" d="M76.6,49.7v65.1h10.6v10.4H76.6v3.6c0,10.6-2.3,20.3-8.7,26.4c-5,4.6-11.6,7.1-18.4,7c-4,0-8-0.7-11.7-2.2
			l1.9-10.6c2.8,1.2,5.7,1.8,8.7,1.7c11.7,0,14.7-10.3,14.7-21.8v-4.1H44.8v-10.5h18.3V49.7H76.6z"/>
		<path class="st0" d="M103.1,22.9c0,16.5-11.4,23.6-22.2,23.6c-12.1,0-21.3-8.8-21.3-22.9C59.6,8.7,69.3,0,81.7,0
			C94.4,0,103.1,9.3,103.1,22.9z M67.8,23.4c0,9.8,5.6,17.1,13.5,17.1c7.7,0,13.5-7.3,13.5-17.3c0-7.5-3.8-17.1-13.3-17.1
			S67.8,14.9,67.8,23.4z"/>
		<path class="st0" d="M43.5,151.5c0,16.5-11.4,23.6-22.2,23.6c-12,0-21.3-8.8-21.3-22.9c0-14.9,9.8-23.6,22.1-23.6
			C34.9,128.6,43.5,137.9,43.5,151.5z M8.2,152c0,9.8,5.6,17.1,13.5,17.1c7.7,0,13.5-7.3,13.5-17.3c0-7.5-3.8-17.1-13.3-17.1
			S8.2,143.5,8.2,152z"/>
	</g>
</g>
</svg>
